<svg xmlns="http://www.w3.org/2000/svg" width="36" height="34" fill="none"><path fill="url(#a)" d="M7.587 29.718c0 2.06-1.659 3.732-3.704 3.732S.18 31.78.18 29.718s1.658-3.733 3.703-3.733 3.704 1.672 3.704 3.733z" opacity=".25" style="mix-blend-mode:multiply"/><path fill="url(#b)" d="M6.846 32.023a1.488 1.488 0 0 0-1.412-1.558 1.48 1.48 0 0 0-1.546 1.429 1.486 1.486 0 0 0 1.417 1.558c.816.037 1.509-.6 1.546-1.429h-.005z"/><path fill="url(#c)" d="M15.464 22.542 6.146 32.96c-.854.563-2.308-.757-1.922-1.742L13.542 20.8l1.916 1.742h.006z"/><path fill="url(#d)" d="M15.464 22.542 6.146 32.96c-.854.563-2.308-.757-1.922-1.742L13.542 20.8l1.916 1.742h.006z" style="mix-blend-mode:multiply"/><path fill="#B8FF33" d="M26.892 19.641c.392 5.588-3.757 9.921-9.275 9.673-5.518-.25-10.31-4.983-10.708-10.576-.397-5.588 3.757-9.921 9.275-9.667 5.518.249 10.311 4.982 10.708 10.57z"/><path fill="url(#e)" d="M27.442 19.805c.397 5.587-3.758 9.915-9.275 9.666-5.518-.249-10.311-4.982-10.703-10.57-.397-5.588 3.757-9.921 9.275-9.667 5.518.25 10.31 4.982 10.708 10.57h-.005z"/><path fill="#CDFF70" d="M26.874 19.779c-.375-5.27-4.895-9.732-10.096-9.97-.172-.005-.338 0-.505 0 5.19.254 9.689 4.706 10.064 9.964.36 5.096-3.295 9.072-8.239 9.115h.033c5.2.233 9.119-3.846 8.743-9.115v.006z"/><path fill="url(#f)" d="M32.374 11.058 21.822 23.17c-3.237 3.229-11.723-3.181-8.524-7.222L23.851 3.836l8.523 7.222z"/><path fill="url(#g)" d="m13.44 15.807 10.424-11.96-.016-.017-10.552 12.112c-3.672 4.079 5.04 10.451 8.512 7.238-3.343 2.867-11.502-3.397-8.362-7.373h-.005z"/><path fill="#639900" d="M35.374 8.791c.3 4.252-2.86 7.546-7.058 7.357-4.197-.19-7.847-3.792-8.148-8.044-.3-4.252 2.861-7.546 7.059-7.357 4.197.19 7.841 3.792 8.147 8.044z"/><path fill="url(#h)" d="M35.225 8.493c.284 4.003-2.69 7.098-6.64 6.919-3.95-.179-7.38-3.565-7.665-7.568-.279-3.998 2.69-7.097 6.64-6.919 3.95.179 7.38 3.565 7.665 7.568z"/><path fill="#D9FF94" d="M34.876 8.477c-.269-3.808-3.532-7.027-7.29-7.2-.171-.006-.338 0-.504 0 3.741.184 6.989 3.402 7.257 7.194.258 3.636-2.308 6.476-5.808 6.579h.033c3.757.167 6.585-2.776 6.312-6.584v.01z"/><defs><linearGradient id="b" x1="4.346" x2="6.597" y1="30.835" y2="33.28" gradientUnits="userSpaceOnUse"><stop stop-color="#333"/><stop offset="1" stop-color="#B8FF33"/></linearGradient><linearGradient id="c" x1="10.302" x2="8.361" y1="27.887" y2="26.152" gradientUnits="userSpaceOnUse"><stop stop-color="#242429"/><stop offset=".26" stop-color="#18181B"/><stop offset=".55" stop-color="#131316"/><stop offset=".78" stop-color="#434343"/><stop offset=".82" stop-color="#474747"/><stop offset=".87" stop-color="#535353"/><stop offset=".91" stop-color="#676767"/><stop offset=".96" stop-color="#848484"/><stop offset="1" stop-color="#242429"/></linearGradient><linearGradient id="d" x1="7.88" x2="12.071" y1="28.643" y2="24.028" gradientUnits="userSpaceOnUse"><stop stop-color="#fff"/><stop offset="1"/></linearGradient><linearGradient id="f" x1="17.331" x2="26.269" y1="10.734" y2="18.885" gradientUnits="userSpaceOnUse"><stop stop-color="#74B300"/><stop offset=".08" stop-color="#6AA300"/><stop offset=".16" stop-color="#609400"/><stop offset=".25" stop-color="#609400"/><stop offset=".58" stop-color="#74B300"/><stop offset=".87" stop-color="#D2FF80"/><stop offset="1" stop-color="#8BD600"/></linearGradient><linearGradient id="g" x1="17.22" x2="25.738" y1="11.107" y2="18.869" gradientUnits="userSpaceOnUse"><stop stop-color="#5D8F00"/><stop offset=".06" stop-color="#568500"/><stop offset=".15" stop-color="#507A00"/><stop offset=".25" stop-color="#426600"/><stop offset=".309" stop-color="#4C7500"/><stop offset=".58" stop-color="#5D8F00"/><stop offset=".87" stop-color="#B9FF38"/><stop offset="1" stop-color="#B8FF33"/></linearGradient><linearGradient id="h" x1="22.489" x2="33.741" y1="3.001" y2="13.258" gradientUnits="userSpaceOnUse"><stop stop-color="#8BD600"/><stop offset=".11" stop-color="#9CF000"/><stop offset=".34" stop-color="#B0FF1F"/><stop offset=".56" stop-color="#BBFF3D"/><stop offset=".78" stop-color="#BBFF3D"/><stop offset="1" stop-color="#C4FF57"/></linearGradient><radialGradient id="a" cx="0" cy="0" r="1" gradientTransform="matrix(3.70357 0 0 3.73257 3.883 29.718)" gradientUnits="userSpaceOnUse"><stop stop-color="#5E3518"/><stop offset=".09" stop-color="#633B1F"/><stop offset=".23" stop-color="#724E34"/><stop offset=".4" stop-color="#8A6C57"/><stop offset=".6" stop-color="#AB9687"/><stop offset=".81" stop-color="#D5CBC3"/><stop offset="1" stop-color="#fff"/></radialGradient><radialGradient id="e" cx="0" cy="0" r="1" gradientTransform="matrix(18.8639 .85334 -.85999 19.01096 20.963 18.44)" gradientUnits="userSpaceOnUse"><stop stop-color="#C4FF57"/><stop offset=".08" stop-color="#C0FF4D"/><stop offset=".17" stop-color="#BBFF3D"/><stop offset=".25" stop-color="#ABFF0F"/><stop offset=".34" stop-color="#8EDB00"/><stop offset=".42" stop-color="#639900"/><stop offset=".53" stop-color="#639900"/><stop offset=".67" stop-color="#ADFF14"/><stop offset=".83" stop-color="#598A00"/></radialGradient></defs></svg>